<svg version="1.2" xmlns="http://www.w3.org/2000/svg" viewBox="0 0 250 60" width="250" height="60">
	<style>
		.s0 { fill: #32ff7e } 
		.s1 { fill: #000000 } 
	</style>
	<path id="&lt;Compound Path&gt;" fill-rule="evenodd" class="s0" d="m66.47 5.21c3.26-0.04 7.04-1 9.47 1.52 0.12 0.13 0.13 0.18 0.24 0.3 0.42 0.47 0.81 0.88 1.34 1.23 1.55 1.03 2.07 2.21 2.33 2.42q0.13 0.09 0.3 0.19c0.23 0.16 0.38 0.31 0.58 0.46 0.21 0.16 0.34 0.31 0.51 0.53 0.1 0.13 0.16 0.17 0.25 0.29 0.32 0.42 0.64 0.81 0.74 1.35 0.09 0.52 0.29 0.46 0.79 0.73 0.46-0.44 0.69-1.71 0.94-2.34 0.53-1.37 2.67-1.42 3.88-0.96 1.75 0.67 2.08 3.24 1.44 4.86-0.3 0.76-0.41 0.39-0.78 0.69-0.38 0.3-0.15 0.7-0.42 1.06-0.29 0.39-0.76 0.2-1.02 0.29-0.28 0.1-0.62 0.43-0.89 0.58l-0.51 0.2c-0.19 0.08-0.22 0.2-0.4 0.32-1.04 0.73-0.73-1.61-1.8-1.04 0.04 0.53 0.69 0.93 1.08 1.21 0.71 0.53 1.36 1.17 1.6 2.12 0.08 0.31 0.04 0.81 0.25 1.11 0.05 0.08 0.02 0.04 0.08 0.09 0.15 0.12 1.24 0.64 1.86 1.14l0.41 0.35c0.16 0.17 0.13 0.22 0.35 0.37 0.08-1.01 1.42-2.38 1.42-4.43 0-0.91-0.3-1.08-0.81-1.7-0.18-0.22-1.28-1.78-0.43-1.99 0.51 0.18 0.11 0.63 0.75 0.9 0 0.01 0.02 0.04 0.02 0.03q0.01 0 0.03 0.03c0-1.22-0.36-1.74-0.35-3.01 0.01-0.84 0.31-0.68 0.48-0.06 0.18 0.61 0.13 1.57 0.47 1.82 0-0.39-0.19-1.31-0.18-1.97 0.01-0.35 0.06-0.71 0.27-0.71 0.64-0.01 0.09 1.89 0.73 2.62 0-0.48 0.02-0.86 0.05-1.26q0.01-0.27 0-0.53c-0.01-0.72 0.33-0.67 0.42-0.03 0.09 0.63-0.09 1.56 0.35 1.88q0-0.47 0-0.93 0-0.11 0-0.2c0.05-0.78 0.58-0.74 0.61 0.06 0.01 0.55 0.04 1.49 0.05 2.27 0.01 1.26-0.1 1.27-0.39 2.4-0.09 0.36-0.16 0.71-0.23 1.29-0.22 1.66-0.48 3.54-0.79 5.11-0.12 0.58-0.25 1.03-0.43 1.54-0.36 1.04-0.56 1.07-1.5 1.07-0.9 0-1.11-0.43-1.57-0.89-0.3-0.3-0.53-0.48-0.94-0.64-0.55-0.21-0.99-0.59-1.41-0.99-0.16-0.16-0.27-0.22-0.43-0.39l-1.97-2.07c-0.16-0.18-0.19-0.28-0.39-0.43-0.1-0.08-0.34-0.32-0.44-0.32-0.39 0-2.09 1.84-2.74 2.18-0.34 0.18-0.76 0.27-1.12 0.46-0.35 0.17-1.18 0.94-1.87 1.36-0.68 0.41-1.44 0.7-2.08 1.13 0.03 0.39 0.11 0.61 0.11 1.09 0.25 0.14 0.33 0.2 0.53 0.4 1.68 1.71 3.22 3.5 4.5 5.55 0.75 1.19 1.62 2.72 0.69 4.09-0.23 0.35-0.53 0.42-0.86 0.61-0.33 0.19-0.52 0.42-1.04 0.44-0.57 0.03-0.78 0-1.36 0.11-1.27 0.26-1.46 0.21-2.74 0.22-0.5 0-0.87-0.06-1.42-0.06-2.57 0-5.26-0.1-7.81 0.11 0.14 0.2 0.15 0.11 0.28 0.28-0.09 0.3-0.71 0.66-0.95 0.91-0.5 0.51-0.17 0.76-0.32 1.48-0.13 0.59-0.52 0.03-0.25 2.24 0.05 0.47 0.29 1.26-0.51 1.26-1.31 0-1.8-1.54-2.2-2.54-0.3-0.74-0.96-2.89-0.96-3.74-1.07 0.57-1.09 0.72-2.6 1.39-1 0.45-4.06 2.92-5.12 3.84-1.24 1.09-2.52 2.09-3.68 3.25-0.5 0.5-0.99 0.97-1.43 1.53-0.19 0.24-0.24 0.3-0.39 0.59-0.26 0.51-0.91 1.28-1.32 1.68-0.09 0.09-0.17 0.15-0.25 0.25-0.24 0.29-0.52 0.46-0.62 0.85q-0.08 0.39-0.19 0.79c-0.54 1.82-1.31 1.19-1.57 0.33-0.3-0.99-0.21-2.31 0.04-3.28 0.57-2.24 0.19-2.07 0.52-3.74 0.05-0.27 0.17-0.74 0.25-1.14 0.15-0.79 0.04-0.66 1.03-0.55q0.49 0.05 0.93 0.14c1.38 0.28 1.35 0.56 2.18-0.23l1.91-1.8c0.43-0.44 0.82-0.83 1.25-1.26 0.8-0.8 1.09-0.86 1.38-1.74 0.18-0.57 0.54-1.14 0.97-1.54 1.12-1.04 2.76-1.9 4.03-2.74 0.34-0.23 0.41-0.27 0.6-0.66l1.18-2.53c1.41-2.8 2.17-2.77 3.85-4.89 1.71-2.17 0.28-2.87 4.03-5.69 0.59-0.45 1.09-0.75 1.77-1.07q0.23-0.12 0.43-0.28c0.24-0.15 0.58-0.47 0.72-0.71 0.26-0.45-0.02-0.17 0.53-0.88 0.81-1.07 1.56-2.2 2.32-3.3 0.35-0.5 0.9-1.06 1.37-1.42 0.15-0.12 0.23-0.22 0.36-0.35 0.41-0.41 1.45-1.29 1.9-1.6-0.34-0.51-1.32-1.75-1.82-2.17l-0.41-0.35c-1.2-0.96-0.58-2.52-1.89-2.81-0.85-0.19-1.94-0.16-2.87-0.24-0.53-0.04-1-0.01-1.52-0.06-0.98-0.1-3.25-0.58-4.23-0.28-0.74 0.24-0.78 1.6-1.31 1.86-0.24 0.12-0.32 0.07-0.58 0.24-0.51 0.34-0.73 1.1-1.1 1.19q-0.27-0.17-0.27-0.6c0-0.8 1.09-1.01 0.77-1.7-0.19-0.44-1.25-0.27-1.58-0.15-0.54 0.18-1.03 0.55-1.55 0.65-0.5 0.1-0.95-0.13-0.42-0.49 0.38-0.25 1.18-0.53 1.3-0.99-0.63 0-0.97 0.18-1.41 0.27-0.81 0.18-0.62-0.25-0.15-0.57 0.51-0.35 0.46-0.03 0.72-0.6 0.31-0.68 0.91-0.63 1.2-0.98 0.15-0.19 0.29-0.28 0.53-0.35 0.55-0.15 2.74-0.06 3.37-0.06 0.99 0 2-0.15 2.95-0.17zm5.16 31.27c0.33-0.12 0.58-0.22 0.92-0.34 0.3-0.1 0.62-0.26 0.97-0.28l-0.08-0.04q-0.01-0.01-0.03-0.02l-0.25-0.07c-0.68-0.22-1.72-0.78-2.35-1.09-0.93-0.47-1.74-1.01-2.48-1.41l-2.17 2.15-2.36 1.95c0.36 0.01 0.59 0.11 1.2 0.11 2.68-0.07 3.92 0 6.63-0.96z"/>
	<path id="&lt;Compound Path&gt; copy" fill-rule="evenodd" class="s1" d="m92.33 8.56c0.59-0.02 1.61 0.02 2.28 0.07 0.67 0.06 1.52 0.17 1.91 0.25 0.38 0.07 0.91 0.24 1.16 0.35 0.26 0.12 0.66 0.43 0.89 0.68q0.41 0.45 0.59 1c0.14 0.43 0.18 0.81 0.18 1.63 0 0.59-0.08 1.49-0.16 2-0.09 0.51-1.55 7.46-3.23 15.45-1.69 7.99-3.09 14.59-3.11 14.68-0.04 0.15-0.3 0.17-7.49 0.17l0.04-0.21c0.02-0.12 0.34-1.62 0.7-3.33 0.36-1.72 0.67-3.21 0.7-3.33 0.05-0.2 0.03-0.21-1.58-0.21l-0.32 1.47c-0.17 0.8-0.5 2.39-1.17 5.56l-3.61 0.02c-2.85 0.02-3.6 0-3.57-0.09 0.02-0.06 0.15-0.69 0.3-1.39 0.27-1.26 0.27-1.28 0.55-1.33 0.15-0.04 0.59-0.08 0.98-0.11 0.38-0.02 0.84-0.08 1.02-0.13 0.18-0.04 0.68-0.28 1.12-0.53 0.43-0.24 0.96-0.61 1.17-0.82 0.24-0.24 0.48-0.63 0.69-1.11 0.28-0.67 0.31-0.84 0.3-1.58 0-0.59-0.06-1.04-0.21-1.49-0.11-0.36-0.37-0.97-0.58-1.35-0.21-0.39-0.64-1.08-0.94-1.54-0.3-0.46-0.78-1.13-1.06-1.49-0.28-0.36-0.48-0.71-0.46-0.79 0.02-0.08 0.24-1.1 0.95-4.4l0.46-0.3c0.26-0.16 0.62-0.43 0.8-0.6 0.18-0.16 0.42-0.37 0.54-0.45 0.22-0.16 0.23-0.16 1.03 0.72 0.44 0.48 1.2 1.2 1.68 1.61 0.49 0.4 1.1 0.81 1.35 0.91 0.26 0.11 0.54 0.28 0.62 0.4 0.15 0.19 0.14 0.27-0.07 1.27-0.12 0.59-0.24 1.17-0.27 1.28-0.04 0.21-0.03 0.21 1.58 0.22l0.19-0.8c0.18-0.76 0.19-0.78 0.42-0.72 0.13 0.04 0.63 0.06 1.12 0.06 0.73-0.01 0.97-0.05 1.39-0.24 0.28-0.13 0.64-0.38 0.8-0.55 0.16-0.18 0.38-0.46 0.48-0.64 0.11-0.18 0.32-0.74 0.48-1.24 0.16-0.5 0.39-1.5 0.52-2.23 0.12-0.73 0.33-2.12 0.47-3.09 0.13-0.98 0.36-2.19 0.49-2.7 0.24-0.89 0.25-1.03 0.25-3.21 0-2.25 0-2.29-0.23-2.74-0.13-0.26-0.4-0.6-0.6-0.77-0.21-0.18-0.43-0.31-0.49-0.31q-0.11-0.01-0.12-0.07c0-0.04-0.17-0.2-0.39-0.36-0.22-0.17-0.53-0.33-0.68-0.36-0.15-0.04-0.44-0.12-0.63-0.2-0.19-0.07-0.45-0.13-0.58-0.13q-0.24 0.01-0.3-0.21c-0.03-0.11-0.26-0.45-0.51-0.74-0.25-0.3-0.65-0.66-0.89-0.82-0.24-0.15-0.64-0.34-0.88-0.42-0.27-0.08-0.45-0.19-0.45-0.27 0-0.11 0.21-0.17 0.91-0.24 0.5-0.05 1.25-0.11 1.65-0.12 0.41-0.01 1.23-0.03 1.82-0.04zm108.2-0.01c0.61-0.01 1.67 0.03 2.35 0.08 0.68 0.05 1.54 0.16 1.91 0.24 0.37 0.08 0.9 0.25 1.18 0.37 0.29 0.13 0.63 0.35 0.78 0.49 0.14 0.14 0.36 0.42 0.48 0.62 0.12 0.21 0.27 0.65 0.33 0.98 0.08 0.39 0.1 0.96 0.06 1.63-0.03 0.56-0.13 1.4-0.21 1.86-0.08 0.46-1.21 5.88-2.52 12.05-1.3 6.17-2.49 11.69-2.64 12.27-0.15 0.57-0.44 1.41-0.63 1.86-0.19 0.44-0.52 1.04-0.72 1.32-0.2 0.28-0.56 0.65-0.79 0.84-0.23 0.18-0.64 0.43-0.91 0.56-0.27 0.13-0.49 0.26-0.49 0.3 0 0.04 0.33 0.92 0.74 1.96 0.4 1.03 0.75 1.98 0.85 2.3l-6.37-0.05-0.45-1.53c-0.24-0.85-0.49-1.68-0.62-2.19l-1.71-0.07c-0.93-0.03-2.1-0.13-2.58-0.21-0.56-0.1-1.11-0.26-1.49-0.45q-0.6-0.29-0.9-0.69c-0.17-0.22-0.36-0.57-0.42-0.79-0.06-0.22-0.11-0.84-0.11-1.37 0-0.54 0.08-1.38 0.17-1.86 0.08-0.49 1.22-5.94 2.52-12.1 1.3-6.17 2.49-11.7 2.64-12.29 0.15-0.59 0.41-1.45 0.58-1.91 0.17-0.46 0.46-1.09 0.64-1.39 0.18-0.3 0.53-0.76 0.79-1.02 0.26-0.27 0.7-0.61 0.98-0.77 0.28-0.16 0.7-0.35 0.93-0.43 0.23-0.08 0.75-0.21 1.16-0.3 0.41-0.08 1.33-0.19 2.05-0.22 0.72-0.04 1.8-0.08 2.42-0.09zm-2.31 7.15c-0.08 0.18-1.21 5.37-2.5 11.53-2.33 11.04-2.36 11.2-2.17 11.34 0.13 0.1 0.31 0.12 0.65 0.08 0.26-0.03 0.54-0.13 0.63-0.21 0.09-0.09 0.2-0.33 0.25-0.54 0.05-0.2 1.08-5.06 2.29-10.79 1.2-5.74 2.25-10.7 2.31-11.03 0.12-0.56 0.11-0.62-0.05-0.77-0.1-0.1-0.32-0.16-0.52-0.16-0.19 0-0.44 0.05-0.55 0.11-0.11 0.07-0.26 0.27-0.34 0.44zm-81.88-6.7l-0.04 0.21c-0.03 0.12-0.3 1.43-0.61 2.91-0.31 1.48-0.58 2.77-0.61 2.86-0.04 0.15-0.21 0.17-3.52 0.21l-3.14 14.8c-1.73 8.14-3.15 14.81-3.15 14.82 0 0.02-1.68 0.03-7.45 0.03l0.04-0.21c0.02-0.12 1.43-6.75 3.12-14.73 1.69-7.99 3.08-14.57 3.08-14.64 0-0.09-0.41-0.11-3.45-0.11l0.05-0.21c0.03-0.12 0.3-1.43 0.61-2.91 0.31-1.49 0.58-2.78 0.61-2.86 0.04-0.16 0.47-0.17 14.46-0.17zm2.08 0h3.71c2.04 0 3.7 0.03 3.7 0.07 0 0.04-0.52 2.5-2.29 10.87l0.85 0.02c0.46 0.01 0.85 0.01 0.86 0 0.01-0.01 0.53-2.47 2.32-10.91l3.74-0.02c2.96-0.02 3.73 0 3.71 0.09-0.02 0.06-1.73 8.13-7.55 35.72h-3.75c-2.96 0-3.74-0.03-3.7-0.12 0.02-0.06 0.9-4.2 1.95-9.19 1.05-4.99 1.91-9.13 1.91-9.19 0-0.09-0.23-0.12-0.84-0.12-0.72 0-0.84 0.02-0.87 0.16-0.03 0.09-0.91 4.25-1.96 9.24-1.05 4.99-1.91 9.11-1.91 9.15 0 0.03-1.68 0.07-3.73 0.07-3.49 0-3.72-0.01-3.68-0.17 0.02-0.09 1.73-8.15 3.79-17.91zm20.1 0h3.71c2.04 0 3.71 0.01 3.71 0.02 0 0.01-1.41 6.64-3.12 14.73-1.72 8.09-3.12 14.71-3.12 14.73 0 0.01 0.94 0.02 2.09 0.02 1.62 0 2.1 0.03 2.1 0.12 0 0.06-0.28 1.49-1.26 6.21h-5.84c-5.52 0-5.84-0.01-5.8-0.16 0.02-0.09 1.73-8.16 3.79-17.92zm13.86 0h11.33l-0.05 0.21c-0.03 0.11-0.3 1.4-0.6 2.86-0.31 1.46-0.58 2.75-0.61 2.86-0.05 0.21-0.05 0.21-2 0.21-1.08 0-1.96 0.01-1.95 0.03 0 0.01-0.11 0.54-0.24 1.18-0.13 0.64-0.23 1.2-0.23 1.24 0 0.03 0.82 0.07 1.81 0.07 1.67 0 1.82 0.01 1.81 0.16 0 0.09-0.26 1.4-1.17 5.65l-3.71 0.05-1.56 7.28c-0.86 4.01-1.59 7.38-1.65 7.7h1.96c1.07 0 1.95 0.03 1.95 0.05 0 0.03-0.27 1.36-0.6 2.96-0.34 1.6-0.63 3-0.7 3.32h-5.68c-5.36 0-5.68-0.01-5.64-0.16 0.02-0.09 1.73-8.15 3.79-17.92zm26.86 0l-0.04 0.21c-0.03 0.12-0.3 1.43-0.61 2.91-0.31 1.49-0.58 2.77-0.61 2.86-0.03 0.15-0.21 0.17-3.52 0.21l-3.14 14.8c-1.73 8.14-3.14 14.81-3.15 14.82 0 0.02-1.68 0.03-7.45 0.03l0.04-0.21c0.03-0.12 1.43-6.74 3.12-14.73 1.69-7.99 3.08-14.57 3.08-14.64 0-0.09-0.41-0.11-3.45-0.11l0.05-0.21c0.03-0.12 0.3-1.43 0.61-2.91 0.31-1.49 0.58-2.77 0.61-2.86 0.05-0.16 0.47-0.17 14.46-0.17zm2.18 0h7.41l-0.04 0.21c-0.02 0.12-1.7 8.07-3.73 17.66-2.03 9.6-3.72 17.57-3.81 17.97h-3.7c-3.48 0-3.7-0.01-3.66-0.17 0.02-0.08 1.72-8.15 3.78-17.91zm-92.83 10.65c0.1 0.16 0.11 0.29 0.03 0.7-0.06 0.28-0.15 0.63-0.2 0.77q-0.1 0.27-0.25 0.19c-0.07-0.04-0.26-0.43-0.41-0.86-0.14-0.44-0.24-0.82-0.22-0.84 0.03-0.03 0.24-0.07 0.48-0.1 0.36-0.04 0.46-0.01 0.57 0.14z"/>
</svg>